<svg width="40" height="49" viewBox="0 0 40 49" fill="none" xmlns="http://www.w3.org/2000/svg">
<path d="M9.1913 45.1275L11.3037 32.516L27.2079 34.1312L25.0335 48.1096L17.889 40.0953L9.1913 45.1275Z" fill="#FFF066" stroke="#0D0D0D" stroke-width="0.4" stroke-linejoin="round"/>
<ellipse cx="17.6695" cy="18.2302" rx="17.6695" ry="18.2302" transform="matrix(-1 0 0 1 39.7667 1.80121)" fill="#1FC87F"/>
<path fill-rule="evenodd" clip-rule="evenodd" d="M14.372 36.4315C16.7057 37.6038 19.327 38.2616 22.0972 38.2616C28.6088 38.2616 34.2978 34.6275 37.3626 29.2179L17.2722 24.3822L14.372 36.4315Z" fill="#1E8057"/>
<path d="M14.372 36.4315L14.2822 36.6102C14.1991 36.5685 14.1558 36.475 14.1775 36.3847L14.372 36.4315ZM37.3626 29.2179L37.4094 29.0235C37.4705 29.0381 37.5211 29.0807 37.5461 29.1383C37.5711 29.1959 37.5676 29.2619 37.5366 29.3165L37.3626 29.2179ZM17.2722 24.3822L17.0777 24.3354C17.0901 24.2838 17.1225 24.2393 17.1678 24.2116C17.213 24.1839 17.2674 24.1753 17.319 24.1878L17.2722 24.3822ZM14.4617 36.2528C16.7684 37.4115 19.3591 38.0616 22.0972 38.0616V38.4616C19.295 38.4616 16.643 37.7961 14.2822 36.6102L14.4617 36.2528ZM22.0972 38.0616C28.5318 38.0616 34.1567 34.4707 37.1886 29.1193L37.5366 29.3165C34.4388 34.7843 28.6859 38.4616 22.0972 38.4616V38.0616ZM17.319 24.1878L37.4094 29.0235L37.3158 29.4123L17.2254 24.5766L17.319 24.1878ZM14.1775 36.3847L17.0777 24.3354L17.4666 24.429L14.5664 36.4783L14.1775 36.3847Z" fill="#0D0D0D"/>
<ellipse cx="17.2005" cy="18.2302" rx="17.2005" ry="18.2302" transform="matrix(-1 0 0 1 35.401 1)" fill="white" stroke="#0D0D0D" stroke-width="0.4" stroke-linejoin="round"/>
<ellipse cx="13.6177" cy="14.6159" rx="13.6177" ry="14.6159" transform="matrix(-1 0 0 1 31.6631 4.61426)" stroke="#0D0D0D" stroke-width="0.4" stroke-linejoin="round"/>
<path d="M19.7541 10.74L16.2496 15.2767L10.5255 14.9619L13.7575 19.6965L11.6892 25.0428L17.1911 23.4323L21.637 27.0514L21.8054 21.3214L26.6213 18.2117L21.2235 16.2809L19.7541 10.74Z" fill="#FFF066" stroke="#0D0D0D" stroke-width="0.4" stroke-linejoin="round"/>
</svg>
