<svg width="39" height="49" viewBox="0 0 39 49" fill="none" xmlns="http://www.w3.org/2000/svg">
<path d="M30.5754 45.1275L28.4631 32.516L12.5588 34.1312L14.7332 48.1096L21.8777 40.0953L30.5754 45.1275Z" fill="#0CA752" stroke="#0D0D0D" stroke-width="0.4" stroke-linejoin="round"/>
<ellipse cx="17.6695" cy="20.0314" rx="17.6695" ry="18.2302" fill="#1875BC"/>
<path fill-rule="evenodd" clip-rule="evenodd" d="M25.3948 36.4315C23.0611 37.6038 20.4397 38.2616 17.6695 38.2616C11.1579 38.2616 5.469 34.6275 2.40411 29.2179L22.4946 24.3822L25.3948 36.4315Z" fill="#F9B042"/>
<path d="M25.3948 36.4315L25.4846 36.6102C25.5676 36.5685 25.611 36.475 25.5892 36.3847L25.3948 36.4315ZM2.40411 29.2179L2.35731 29.0235C2.29626 29.0381 2.24566 29.0807 2.22065 29.1383C2.19565 29.1959 2.19915 29.2619 2.2301 29.3165L2.40411 29.2179ZM22.4946 24.3822L22.689 24.3354C22.6766 24.2838 22.6442 24.2393 22.599 24.2116C22.5537 24.1839 22.4993 24.1753 22.4478 24.1878L22.4946 24.3822ZM25.305 36.2528C22.9984 37.4115 20.4077 38.0616 17.6695 38.0616V38.4616C20.4718 38.4616 23.1238 37.7961 25.4846 36.6102L25.305 36.2528ZM17.6695 38.0616C11.235 38.0616 5.61003 34.4707 2.57813 29.1193L2.2301 29.3165C5.32796 34.7843 11.0809 38.4616 17.6695 38.4616V38.0616ZM22.4478 24.1878L2.35731 29.0235L2.45092 29.4123L22.5414 24.5766L22.4478 24.1878ZM25.5892 36.3847L22.689 24.3354L22.3001 24.429L25.2003 36.4783L25.5892 36.3847Z" fill="#0D0D0D"/>
<ellipse cx="21.5662" cy="19.2302" rx="17.2005" ry="18.2302" fill="white" stroke="#0D0D0D" stroke-width="0.4" stroke-linejoin="round"/>
<ellipse cx="21.7213" cy="19.2302" rx="13.6177" ry="14.6159" stroke="#0D0D0D" stroke-width="0.4" stroke-linejoin="round"/>
<path d="M20.0127 10.74L23.5171 15.2767L29.2412 14.9619L26.0093 19.6965L28.0775 25.0428L22.5756 23.4323L18.1297 27.0514L17.9614 21.3214L13.1454 18.2117L18.5432 16.2809L20.0127 10.74Z" fill="#FFF066" stroke="#0D0D0D" stroke-width="0.4" stroke-linejoin="round"/>
</svg>
